<svg xmlns="http://www.w3.org/2000/svg" viewBox="0 0 1200 630" role="img" aria-label="ML Workbench cover">
  <defs>
    <linearGradient id="bg" x1="0" x2="1" y1="0" y2="1">
      <stop offset="0%" stop-color="#0f172a"/>
      <stop offset="100%" stop-color="#1e3a8a"/>
    </linearGradient>
    <linearGradient id="accent" x1="0" x2="1" y1="0" y2="0">
      <stop offset="0%" stop-color="#38bdf8"/>
      <stop offset="100%" stop-color="#22d3ee"/>
    </linearGradient>
  </defs>
  <rect width="1200" height="630" fill="url(#bg)"/>
  <g opacity="0.18">
    <circle cx="1040" cy="120" r="180" fill="#93c5fd"/>
    <circle cx="180" cy="560" r="220" fill="#67e8f9"/>
  </g>
  <rect x="120" y="120" width="960" height="390" rx="26" fill="#0b1220" stroke="#334155" stroke-width="3"/>
  <rect x="160" y="170" width="240" height="22" rx="11" fill="#1e293b"/>
  <rect x="160" y="215" width="340" height="14" rx="7" fill="#334155"/>
  <rect x="160" y="245" width="280" height="14" rx="7" fill="#334155"/>
  <rect x="540" y="170" width="500" height="280" rx="16" fill="#111827" stroke="#334155" stroke-width="2"/>
  <polyline points="590,390 670,330 740,360 820,270 910,295 990,230" fill="none" stroke="url(#accent)" stroke-width="8" stroke-linecap="round" stroke-linejoin="round"/>
  <circle cx="670" cy="330" r="7" fill="#22d3ee"/>
  <circle cx="820" cy="270" r="7" fill="#22d3ee"/>
  <circle cx="990" cy="230" r="7" fill="#22d3ee"/>
  <text x="160" y="410" fill="#e2e8f0" font-size="42" font-family="Arial, sans-serif" font-weight="700">
    Internal ML Workbench
  </text>
  <text x="160" y="452" fill="#94a3b8" font-size="24" font-family="Arial, sans-serif">
    Modular training pipelines, reproducible runs, and CI-backed delivery
  </text>
</svg>
